<?xml version="1.0" encoding="utf-8"?>
<!-- Generator: Adobe Illustrator 26.0.1, SVG Export Plug-In . SVG Version: 6.00 Build 0)  -->
<svg version="1.1" id="Layer_1" xmlns="http://www.w3.org/2000/svg" xmlns:xlink="http://www.w3.org/1999/xlink" x="0px" y="0px"
	 viewBox="0 0 680 906" xml:space="preserve" preserveAspectRatio="xMidYMid meet">
<style type="text/css">
	.st0{fill:#FFFFFF; opacity: 0.05;}
</style>
<g>
	<path class="st0" d="M66.4,126.1c-7.4,6.4-14.6,3.2-20.8-2.7c-5.3-5-1-12.9,0-18.9c7.2-41.6,3.2-81.4-9-119.5
		C32.7-27.1,24.2-36.7,22.1-49c-2.2-12.8,1.6-27.6,1.2-41.5c-1.1-37.4-15-73.4-39-81.6c2-25.7,6.4-50.1,17.8-70.6
		c5.1-9.1,11.5-11.9,16.5-8.2c5.6,4.2,7.4,12.2,5.6,25c0,0.4,0.4,0.9,1.5,3.2c1.4-5,3.3-8.8,3.5-12.9c0.9-15.4-9.3-29-20.3-26.3
		c-6.3,1.6-12.6,4.6-18.2,9c-22.4,17.6-34.4,47.1-41.1,82.4c-0.8,4.2-2.2,9.6-4.4,11.5c-29.6,25.4-45.2,64.4-48.5,114.1
		c-2.5,37.5,1.5,73.1,19.1,102.6c1,1.6,1.4,4.9,1.1,7.1c-4.7,36-3.4,72,3.3,106.8c7,36.7,17.4,70.6,47.2,77.1
		c1.1,22.9-8.2,34.5-23,42.4c18,4.1,25.5,20,29,41.2c2.3,14.1,4.2,28.5,6.2,42.7c1.4-8.9,1.6-17.8,2.5-26.7
		c2.5-25.4,2.9-52.4,22.3-66.4c-1.7-1-2.5-1.6-3.3-1.9c-12.6-3.7-20.1-14.9-22.3-33.7c-0.3-2.7,0.1-7,1.4-8.5
		c9.2-11.1,13.4-26.5,16-42.8c1-6.2,3-9.1,6.6-11c9.6-5.3,18.1-12.9,24.5-25.1c3.4-6.5,6.7-13.1,10.1-19.6
		c19.6,13.2,32.2,7.4,32.6-16.8C68.2,124.4,67.3,125.3,66.4,126.1z M1.9-147.4c7.6,15.6,10.8,33.5,11.7,52.3
		c0.6,12.4,0.1,24.9,0.1,37c-9.4-2.3-17.2-3.9-25-6.5c-1.9-0.6-4.8-4.3-4.8-6.7c-0.3-29.8-0.2-59.7-0.2-91C-8-160-2.3-156,1.9-147.4
		z M10.6-46.9C8.8-38,7.8-28.4,4.8-20.4C0.9-10-4.6-0.9-9.4,8.7c-0.7-0.6-1.5-1.1-2.2-1.7c-1.2-18.4-2.5-36.9-3.8-55.3
		c-0.4-5.2,1.3-8.1,4.6-7C-3.6-52.9,3.5-49.8,10.6-46.9z M-6-244.4c-10.6,20.7-16.4,44.1-20.1,69c-0.4,2.8-3.2,5.4-5.3,6.8
		c-2.1,1.5-4.8,1.4-7.1,2C-41.2-187.3-22.5-232.7-6-244.4z M-23.5,16.9h-15.9C-39.4,0-40.1-16.6-39-33c0.4-5.3,5.7-9.8,8.8-14.7
		c0.6,0.4,1.2,0.8,1.8,1.2C-26.8-26-25.2-5.4-23.5,16.9z M-41.5-142.8c0.2-16.4,1.1-16.9,12.5-17.6c0,25.5,0,50.3,0,75.2
		c0,3.3,0,6.7,0.1,10c0.5,16.8,0.5,16.8-11.2,24c-0.4-6.5-1-12.6-1.1-18.8C-41.4-94.3-41.9-118.5-41.5-142.8z M-49.3-19.3
		c0.7,10.9,1.4,20.4,2.1,31.3C-60.5,3.7-60.9-2.3-49.3-19.3z M-50,48.3c-3.5,10-14,15.9-20,10.7c-1.1-0.9-2.1-4.5-1.8-6.2
		c2.7-13.9,5.8-27.6,9-42.5c3.9,3.5,6.1,5.7,8.4,7.5C-46,24.4-44.7,33-50,48.3z M-81.3,47.5c-11.8-29.9-13.1-61.8-10.9-93.7
		c2.8-41,14.1-76.1,38.3-102.2c0.1,4,0.2,5.9,0.2,7.7c0.7,31.2,1.2,62.4,2.4,93.6c0.3,7.6-0.1,13.3-3.7,18.8
		c-3.4,5.2-6,11.3-9.3,17.7c-8.6-19.7-8-40.2,2-61.7c-6.5,2.4-10.2,8-12.3,16c-4.7,17.1-2.8,33.4,3.5,48.6c2.3,5.4,2.3,9.7,0.5,15.6
		C-74.4,20.1-77.4,33-81.3,47.5z M-28.8,155.5c-0.8-14.8-2.1-29.6-4.2-44.3v49.5c-13.1-9.6-18.6-38.6-12.3-63.4
		c-6.3,1.1-8.5,8.3-10.4,15.1c-6.1,22,0.4,49.7,16,63.7c6.1,5.5,8.2,11.6,8,21.5c-0.3,11.6,0,23.3,0.3,34.9c0.1,7.6-2.6,9.9-6.7,7.4
		c-3.8-2.3-7.5-5.6-10.6-9.7c-10.2-13.4-15.4-31.3-19.6-50.2c-7.5-33.7-10-83.2-5.3-112.8c19.2,1.8,23.6-3.4,34-40.7h16.6
		c4.3,49.7,8.6,99.3,12.9,148.8C-22.5,177.8-27.9,171.5-28.8,155.5z M-23.1,235c-1-17.2-1.9-32.2-2.8-47.9c5.9,1,11.1,1.9,16.7,2.8
		C-10.6,206.9-13.1,222-23.1,235z M32.4,110.6c-5.2-9-10.7-17.2-15.3-26.4C12.7,75.2,9,65.3,4.2,56C5,61.2,5.5,66.5,6.6,71.5
		c4.1,19.2,10.2,36.8,19.2,52.1c1.2,2,2.2,6,1.7,8.2c-3.9,17.2-16.6,35.4-27.9,40.9C-3.9,124.2-7.3,76-10.8,27.9
		c-0.6-7.4,0.5-12.2,4.9-16.6C5.4-0.2,13.3-16.1,18.3-35.1C38.7-18.2,44.6,84.6,32.4,110.6z"/>
	<path class="st0" d="M611.9,511.8c-9.3-12.2-21.2-15.2-33-16c-20-1.3-38.7,7.8-56.9,19.2c-3,1.9-6,3.5-9.2,5.4
		c-10.2-29.7-27.1-44.1-47.4-50.1c-26.4-7.7-51.6-1.1-74.5,20.3c-6.5,6.1-11.7,9.8-18.9,3.2c-3.2-3-7.6-3.6-11.6-4.3
		c-28.1-4.7-52.7,9-75,33.5c-14.8,16.4-26.5,36.6-31.4,64c-3.8,21,0.3,40.8,12.7,52.2c8.8,8.1,18.6,14.8,28.5,18.5
		c18.3,6.9,37,3.1,55-3.2c17.9-6.3,35.2-16.2,53.5-24.9c3.4,4.7,7.8,10.7,12.1,16.6c-5.9,17.7-8.5,32.1-7.9,43.7
		c0.6,11.6,4.4,20.5,11.5,27.3c0.1-1,0.5-1.9,0.4-2.7c-1-8.7-0.7-16.8,0.5-24.6c1.8-11.5,5.6-22.2,10.1-32.5
		c1.1-2.4,3.9-4.9,5.7-4.6c14,2.7,26.8-2.5,38.2-13.6c22.8-22.2,40.8-49.8,42.1-93.8c0.1-2.5,2-6.1,3.7-7.2
		c14-8.7,27.7-19,42.2-24.8c21.4-8.4,42.5-8,60.3,18.3C619.2,525.1,616.2,517.4,611.9,511.8z M379.4,513.8
		c9.5,11.2,11.1,22.8,9.7,36.1c-0.9,8.2-4.3,13.7-9.5,14.7c-3.8,0.7-8.9-0.1-11.6-3.4c-2-2.4-2.6-11.1-1.3-15.2
		C370.1,535.1,374.8,525.2,379.4,513.8z M448.5,541c-4.1-6.7-9.2-7.9-17.3-4.1c-18.3,8.6-32.1,34.7-33.6,64.7
		c-0.3,6.5-1.7,9.7-5.6,12.6c-23.2,16.9-46.8,31-72.9,34.4c-13.5,1.8-26.7,0.5-39.5-6.6c-21.5-12-27.9-37.5-15.4-65.8
		c20.9-47,50.9-71.5,88.6-73.6c6.9-0.4,14,2.9,22.6,4.9c-3,5.9-4.9,9.7-6.9,13.5c-4.8,9-7,19-6.6,30.5c0.5,13.9,5.1,20.4,14.6,19.5
		c14.2-1.4,23.3-23.8,18.4-45.9c-1.2-5.6-3.5-10.7-5.2-16.1c32.3-37.1,94.7-39.4,117.3,13.9c-32.5,26.5-64.9,53-97.8,79.9
		C407.6,568.4,428.5,536.4,448.5,541z M436.8,642.9c12-30,31.1-47.3,49.2-69.4c-16.8,8.5-30.5,21.1-43.1,36.5
		c-5.3,6.5-10.4,13.7-15.4,20.8c-6.6,9.3-7.6,9.4-13.9-0.3c-1.2-1.9-2.1-4.1-3.6-7c33.8-26.4,67-52.2,100.2-78.2
		C518,579.7,469,645,436.8,642.9z"/>
	<path class="st0" d="M639.9,280.5c-8.3,0.3-16.9,1.3-24.9,4.6c-9.8,4-19.3,10.2-28.6,16.6c-6.8,4.7-12.1,6.3-17-4.5
		c-1.9-4.2-5.2-7.2-8.1-10.3c-36.2-39.4-95.4-41.7-132.8-4.9c-13.2,13-23.7,29.7-26.8,53.8c-1.1,8.5-3.6,10.5-8.7,10.8
		c-11.4,0.6-22.6,3-32.8,11.9c-10,8.8-15,24-12.6,36.3c4.5-5.7,8.8-13.4,14.2-17.5c11.2-8.5,23.5-9.6,35.9-7.8
		c2,0.3,4.7,3.8,5.5,6.8c13.9,54.9,61.6,69.2,90.5,40.1c5-5.1,9.4-6.7,15.4-5c19.8,5.4,39.2,3.4,57.2-11
		c18.4-14.6,25.1-39.3,18.9-68.7c-0.4-1.8-0.6-3.8-1.2-7.8c17.6-9.5,35-20,52.8-27.9c9.9-4.4,18.1,3.9,24,16.2
		c5.8,12.2,5.1,25-0.5,36.3c-4.7,9.6-10.3,18.4-16.4,26.1c-11,13.9-24.6,17.8-38.8,19.4c3.6,0.8,7.2,2.6,10.8,2.4
		c20-1,36.1-14.3,47.8-38.1C681.4,322,661.5,279.9,639.9,280.5z M437.5,418.1c-15.9-9.2-27.9-28.6-29.5-47.9
		c4.8,1.2,9.4,1.6,13.7,3.6c24.1,10.9,48,22.1,73.3,33.8C476.2,426.3,457.4,429.7,437.5,418.1z M499.9,383
		c-13.1-5.5-26.1-11.3-39.2-16.5c-15.5-6.1-31.1-11.7-46.6-17.6c-1.2-0.5-2.4-1.3-4.1-2.2c5.1-17.7,13.7-30,23.6-40.2
		c33.8-35,88.5-36.4,123.2-3.2c2.8,2.6,5.3,5.9,8.3,12.2c-10.2,4.8-20.2,10.1-30.5,14.1c-12.2,4.7-24.2,0.9-36.4-2.4
		c-6.3-1.7-13.2-0.8-19.7,0.9c-3,0.8-5.6,6-7.9,10.6c11.9-1.2,21.2,4.8,28.4,17.3c3,5.3,4.8,12.5,6.4,19.3
		C507.2,382.5,504.6,385,499.9,383z M574.5,375c-5.7,6.9-12.7,12.5-19.7,15.5c-14,6-28.1,1.8-41.8-3.8c-0.8-28-0.9-28.4-7.8-41.4
		c8.7,0.6,18.1,3.3,26.9,1.2c12.4-2.9,24.5-8.7,36.6-14.4c4.9-2.3,7.6-1.8,10,5.4C583.8,353,583.4,364.2,574.5,375z"/>
	<path class="st0" d="M362-48.3c-2.7-2.3-5.1-7.2-6.3-11.6c-3.1-12.1-8-21.3-15.8-27.1c-31.1-23.1-74.6,0.2-89,47.4
		c-1.3,4.2-4.2,8.6-7.1,10.4c-25.8,15.7-51.6,31.5-77.6,46c-16.2,9-32.7,17.5-49.6,23.5c-13.7,4.9-27.6,2.9-39.5-11.1
		c-4.7-5.6-7.2-12.3-6.9-21.5c0.4-16.1,3.9-30.8,10.3-43.5c13.6-26.9,31.9-43.9,53.5-51.1c10.1-3.4,21.4-2.8,31.7-0.2
		c14.6,3.8,20.1,27.1,11.6,43.8C169.3-26.9,149-16.5,136-22.4c-2.9-1.3-5.5-4.5-8.8-7.4c2.1-2.7,3.3-3.7,4-5.3
		c0.8-2,1.2-4.4,1.8-6.6c-1.8-0.1-3.9-1.2-5.3-0.2c-4.7,3.3-6.1,13.4-1.7,18.2c5.4,5.9,11.8,12.2,18.1,13.4
		c40.9,7.7,74.9-13.5,102-59.2c6.2-10.4,10.1-23.3,9.7-37.4c-0.2-5.6-3-12.3-5.9-16.2c-3.8-5.1-7.5-3.9-11.7,0.5
		c5.4,7,6.4,10.6,4.6,20.9C241.9-97,240.8-92,239-88c-18.1,40.5-44.3,62-75.8,70.6c4.7-6,9.7-11.1,14.7-16.5
		c10.7-11.8,12.1-47.5-3.2-59c-9.6-7.3-19.5-12.1-30.1-11.1C101.3-99.8,73.9-52.5,66.5-1.6c-2.6,18.1,2.3,32.7,13.4,41.7
		c12.7,10.4,26.3,14.4,40.7,11.2c29.1-6.3,56.5-21.2,84-36c14.4-7.7,28.6-16.1,42.8-24.2c2.6,6.9,1.9,11-2.5,15.2
		c-8.6,8.2-15.4,19.3-17.8,34.9c-1.9,12.2,2.2,20.5,10.7,21.5c-3.6-21.7,4.8-35.7,14-50.4c3.6,6.1,6.1,11.2,9.3,15.4
		c26.1,34.6,75.7,38,103.8,7.2C388.5,9,387.2-26.6,362-48.3z M307.6-82.4C326.9-84.8,345.1-74,350-56c-33.7-13.1-63.6,4.6-94.1,20
		C260.9-62.7,286.5-79.7,307.6-82.4z M363.7,20.6c-28.9,27.8-59.5,32-90.9,10.6c-6.4-4.3-11.3-13.3-16.9-20.1c0.2-1.5,0.4-3,0.6-4.4
		c8.2-5.5,16.4-10.9,24.6-16.4c0-0.6-0.1-1.1-0.1-1.7c-8.9,2.8-17.7,5.5-27.2,8.4c-1.5-3.8-3.1-8.1,2.1-11.1
		c26.7-15.4,53.7-28.7,82.9-27.3c2.9,0.2,5.8,0.5,8.7,0.9c1.1,0.2,2.1,0.8,3.2,1.1c-0.6,19-13.8,37.7-27.1,38.8
		c-10.2,0.8-17.6-8.7-19.6-25c-4.5,4-4.9,9.9-1.3,17.6c5.8,12.2,18.5,17,29.8,11c10.5-5.6,17.4-17,21.7-32c0.8-2.7,1.4-5.5,2-8.1
		c0.8-0.1,1.3-0.4,1.6-0.2c8.9,5.3,18.2,11.6,19.5,27.1C378.8,4.3,371,13.5,363.7,20.6z"/>
	<path class="st0" d="M352.1,315.8c-3-12.7-9.8-19.5-17.8-23.8c-15.5-8.4-31.5-8.8-47.5-4c-3.5,1.1-5.5,0.6-7.9-3.6
		c-7.9-14-17.8-24.3-29.3-30.4c-38.8-20.7-75.6-11.8-110.6,17.7c-22.4,18.8-39.7,45.1-48.1,82.4c-5.4,23.9-1.2,36.8,15.4,39.8
		c11.2,2,22.9-0.9,34.3-3.1c4.3-0.8,6.1,0.2,8.6,5.4c3.3,7,7.1,13.8,11.6,19c13.6,15.6,29.4,20,46.1,17.7c4.2-0.6,5.6,0.8,6.6,7.3
		c3.2,20.7,11.9,35.6,24.3,45.4c10.8,8.5,25.9,3.7,33-9.6c3.4-6.4,5.4-13.5,2.2-22.2c-4.3,21.4-10.4,29.6-21.9,30.1
		c-12.7,0.5-26.5-17.9-30.6-39.9c-1.8-9.3-0.8-13.5,6.2-17c31.4-15.6,53.9-44.6,60.8-95.5c0.4-2.9,3.1-7,4.9-7.4
		c13-2.4,26-4.9,39.1-5.4c6.6-0.2,13.5,3.5,14.7,17.6C353,331.5,354.1,324.3,352.1,315.8z M149.1,370.7c-2.7-13,1.1-30.5,10.2-42.1
		c15.4-19.3,32.5-28.7,53.7-14c-4.4-14-11.8-16.1-19.1-16.8c-21.2-2-51,30.1-50.4,68.3c0.1,5.7-1.2,8.3-4.9,9.7
		c-6.9,2.6-13.7,6-20.5,8.8c-2.6,1.1-5.4,2.9-7.8,2.2c-5.2-1.7-12.1-2.7-14.7-7.9c-2.3-4.6-1.1-15.6,0.9-22.1
		c7.7-24.5,21.2-41.5,35.6-57c32.7-34.9,69-46.9,108.4-37.5c13.7,3.2,25.7,11.9,35.8,28.2C231.6,311.1,190.4,340.9,149.1,370.7z
		 M222.9,411.9c5.9-33.3,34.5-72.6,59.3-82.1C281.2,360.2,250.1,403.7,222.9,411.9z M278.8,315.7c-24.9,10.8-44,33.2-57.1,66.4
		c-3.6,9-5.5,19.5-8.3,29.1c-0.7,2.4-1.9,5.8-3.2,6.3c-17.5,6.6-39.2,6-53.4-17.2c-2.4-3.8-4.2-8.4-6.5-13.3
		c45-24.8,85.1-63.9,131.5-82.2C285.1,311.8,282.7,314,278.8,315.7z M288.8,310.3c-0.6-0.9-1.2-1.8-1.8-2.6c1.4-2.5,2.5-6.7,4.3-7.4
		c15.4-6,30.9-7,45.8,2c4.5,2.7,8,9.1,11.4,15.6C329.2,299.6,308.7,309.8,288.8,310.3z"/>
	<path class="st0" d="M166.2,548.7c5.8-24.9,3.3-45.3-9.3-61.6c-17.9-23.2-39.4-30.8-62.4-23.8c-6.8,2-13.5,8.9-18.8,16
		c-3.8,5.1-6,6.1-10.6,3.3c-29.5-17.8-59.9-26.2-91.6-16.9c-31.8,9.4-55.9,34-68.7,79.8c-5.3,19.2-3.7,38,4.6,54.9
		c5.2,10.6,13.2,13.8,19,9.5c-3.1-2.5-7-4.6-9.9-8.2c-8.1-9.9-10.1-26.3-5.7-44c7.7-30.9,23-47.7,44.5-53.9
		c22.1-6.4,42.8-2.8,60.6,19.1c12.7,15.7,13,38.1,1.2,53.5c-9.3,12.2-20.3,18.3-32.6,16.8c-10.2-1.2-19-7-23.4-22.6
		c-2.6-9.2-0.8-16.2,4.4-21.7c7.7-8,16.6-6.1,24.9,5.8c2.8-9.5,2.1-13.9-2.4-17.3c-8.9-6.7-23.5-0.3-29.9,13.2
		c-5,10.6-3,26.9,4.6,38c17.5,25.5,44.4,22.2,60-7.2c10.7-20.3,9.5-45.2-3.1-62.8c-8.2-11.5-18.2-18-29.1-21
		c-7.6-2.1-15.5-2.9-23.2-4.3c17.9-5.5,35-0.1,51.6,9.4c20.2,11.5,37.4,30.9,54.5,50c21.8,24.2,45.3,31.1,71.3,17.3
		c1.9-1,5-2.1,6.2-0.6c6.6,7.8,14.9,13.7,15.9,29.3c1.5-1.5,2.9-2.2,3.6-3.6c5.5-11.5,13.6-13.9,22.3-14.8c8.9-0.9,17.1-5.7,23.5-15
		c3-4.2,4.8-10.2,7.2-15.4C206,566.2,183.4,566.3,166.2,548.7z M121.8,536.1c-17.6,12-44.2-8.6-46.8-36.4
		C90.9,512.1,105.9,523.7,121.8,536.1z M96.6,553.3c-9.2-8.6-17.5-19.5-26.3-29.1c-21.8-23.8-45.7-40.4-72.9-43.6
		c-35.3-4.1-64.6,12.5-83.9,59.3c-3.2,7.7-5.1,16.7-7.6,25.1c-0.5-0.3-1-0.6-1.5-0.8c2.3-8.7,3.9-18,7-26.1
		c15.1-40.1,38.8-60.9,68.8-67.8c30.9-7,59.1,6.3,86.6,24.8c1.5,1,3,4,3.3,6.4c2.5,16.2,9.6,27.2,18.7,34.7
		c11.9,9.8,24.5,16.1,38.4,9.3c1.1-0.5,2.8-0.6,3.7,0.3c4.8,4.7,9.4,9.8,15.2,16C127.6,569.7,111.4,567.3,96.6,553.3z M163.1,548.4
		c-9.5-5.9-17-10.5-24.2-14.9c2.3-24.1-0.5-31.2-10.8-28.6c1.2,3.5,3,6.8,3.5,10.4c0.5,3.5-0.3,7.3-0.7,12.6
		c-18.5-13.1-35.7-25.4-53.7-38.2c6.9-12.8,15.6-16.7,24.5-17.1c18.4-0.8,35.6,6.8,49.3,25.5c5.4,7.4,8.7,18.9,11.8,29.3
		C164.3,532.5,163.1,539.3,163.1,548.4z"/>
	<path class="st0" d="M680-168.8c-3.2-8.6-7.7-17.3-13-22.8c-11.4-11.8-24.8-14.5-38.4-13.1c-4.1,0.4-6.5-1.1-8.5-6.7
		c-4.4-12.6-11.7-20.9-20.2-26.6c-29.7-20.1-57.1-9.5-82.8,15.9c-5.1,5-9.4,13.7-11.9,22.1c-5.9,19.5-0.6,34.1,13.4,37.3
		c8,1.9,16.5,1,24.5-0.5c5.5-1,9-0.5,10.3,8.7c-1.6,0.9-3,1.9-4.5,2.4c-21.4,7.9-42.8,16.4-64.3,23.3c-16.3,5.2-32.9,5.1-49.2,0.4
		c-8-2.3-14.8-8.1-18.7-21.9c3.5-0.2,5.8-0.6,8.2-0.6c8.5,0.1,17,1.4,25.4,0.2c9.4-1.3,19.2-3.1,28-7.9c10.9-6,11.5-22.8,1.8-32.4
		c-3.8-3.7-8.5-6.2-12.9-7.4c-12.1-3.1-23.7,1.3-34.2,10.1c-7.5,6.4-13.6,17-21.3,22.6c-7.9,5.6-17.4,5.9-25.5,11.1
		c-12.4,8.1-21.8,21.8-26.1,41.8c-2.7,12.8,0.9,26.7,8,31.9c7.9,5.9,16.5,3.1,21.8-7c-3.1,0.6-6.1,1.5-9.1,1.8
		c-7.2,0.7-13.7-2.3-16.8-12.5c-3-10,1.1-18,5.6-24.7c10.7-15.9,24.2-23.3,38.8-26.5c1.6-0.4,4.7,2.4,5.3,4.7
		c3.2,12.7,9.4,20.8,17.8,23.6c9.9,3.3,20.2,6.3,30.3,6c31.5-1.1,61.6-14.3,91.2-29c8.4-4.2,14.8-0.2,21.9,4.5
		c-10.4,25.3-9.4,40.8,1.2,43.2c0.5-10.2,0.5-20.6,1.6-30.7c0.9-7.9,4-12.7,10.5-13.5c12-1.4,23-8.8,30.3-22.8
		c5.4-10.3,11.5-12.1,19-11.7c6,0.3,12.1,0.3,18,2.2c4.7,1.5,9.4,4.6,13.2,8.7c6,6.5,5.4,14.4-1.4,19.3c-3.4,2.4-7.3,3-11.1,4.4
		c6.2,5.1,13.1,4.3,18.6-2.1C680.1-149.4,683.2-160.1,680-168.8z M453.8-189.4c6.6-1.7,13.8-1.6,20.4,0.5c3.5,1.1,6.3,8,9.3,12.4
		c-3.2,4.6-6,12.4-9.5,13.1c-9.8,1.9-19.9,1.5-29.8,0.9c-7-0.4-13.9-2.6-22.4-4.3C431.9-179.7,442.4-186.5,453.8-189.4z
		 M580.5-200.4c1.5-7.7-1.8-10.1-5.6-11.7c-9.3-3.9-21.9,6.8-24.7,23.5c-1.9,11.8-6.3,15.5-13.1,16.4c-6.6,0.9-13.4,2.9-19.8,1.6
		c-10.7-2.1-13.1-12.8-6.4-25.5c9.1-17.2,21.8-26.2,35.4-32.3c18.5-8.3,37-9.8,54.4,5.2c5.1,4.4,9.2,11.5,15,18.9
		c-22.1,9.2-41.6,17.2-61.1,25.3C553.6-196.7,567.1-208,580.5-200.4z M586.8-147.7c2.5-3.4,3.9-5.3,6.3-8.4
		c-8.6-0.5-14.7,17.3-23.7,4.2c15.4-6.6,30.4-13,45.5-19.4C608.8-155.5,598.6-151.9,586.8-147.7z M615.7-180.6
		c-17.3,7.2-34.6,14.3-52,20.8c-2.3,0.8-5.2-2.1-7.8-3.4c0.2-1.3,0.3-2.7,0.4-4c14.5-5.6,29-11.2,43.6-16.6c5-1.8,10-3.4,15-4.5
		c1.2-0.3,2.7,1.8,4,2.8C617.9-183.8,617-181.1,615.7-180.6z M624.9-183.9c1.3-3.4,2.1-8,3.3-8.2c16.5-3,32.1,0,44.8,17.9
		c2.1,2.9,3.2,7.4,4.8,11.2C663.9-188.8,644.7-182.6,624.9-183.9z"/>
	<path class="st0" d="M660.7,85.8c-9-11.9-20-13.2-31.2-12.2c-18.2,1.8-34.7,11.8-50.2,25.3c-23.3,20.3-46.3,41.3-69.8,60.9
		c-12.9,10.7-26.6,18.7-41.8,19.2c-12.6,0.4-24.4-2.8-34.5-15.2c-8.2-10.2-10.8-23.2-7.6-38.5c7.6-36.9,38.7-65.1,64.1-57.7
		c3.9,1.1,7.7,3.4,11.1,6.4c7.1,6.1,9.6,17.8,6.8,29.4c-5.5,22.9-29.2,43.1-45.2,38.5c-1.6-0.4-3.1-1.7-4.6-3.1
		c17.2,1.6,30.8-9.1,41.7-27.8c9-15.5,6.4-26.3-7-31.4c-12.8-4.9-25-1.6-36.3,7.2c-10.9,8.4-19.3,21.5-25,37.8
		c-6.1,17.5,0.2,36.6,13.4,38.4c8.6,1.2,18.5,1.2,26.1-3.7c22.4-14.5,44.2-31.3,65.9-48.1c23.5-18.3,46.7-37.8,73.3-44.7
		c13-3.3,26.2-6,39,1c4.7,2.6,9.5,6.1,13.4,10.8c9.8,11.7,11.8,29.2,6.1,45.8c-11.3,33-40.1,56.9-64.9,53.8
		c-14.1-1.8-22.8-13.6-22-30.1c0.7-15.1,12.1-31.9,22.2-32.6c5.3-0.4,9,2.6,10.1,8.7c-6.1,4.8-12.5,7.9-17.2,13.8
		c-6.8,8.5-6.1,19.3,1.5,26.5c3.9,3.7,9.3,6.6,13.7,5.9c23-3.6,41.6-18.8,53.1-49.9c5.4-14.6,2.8-23.7-7.6-29.8
		c-13.3-7.8-26.6-4.3-39.3,2.3c-33.1,17.1-58.6,47.3-71.5,97.6c-1.7,6.7-2.9,14.1-3.1,21.2c-0.2,10.1,2,14.2,10.5,24.2
		c-8.2,3.6-17-2.8-20.3-15.2c-3.1-11.5-3.5-23.3-0.8-35.2c4-17.7,10.3-33.4,19.6-45.8c22.1-29.6,47.1-51.1,77-58.7
		C640.2,78.4,650.5,80.1,660.7,85.8z"/>
	<path class="st0" d="M289.7,248.1c-15.1,7.5-26.4-4.9-25.3-27.9c1.2-25.3,10.2-45.3,22.9-61.1c22.8-28.4,49.3-39.2,78.7-33.3
		c10.5,2.1,19.9,8.9,26.8,20.6c3.7,6.3,5.4,15.4,7.8,22.8c4.3-7.5,4.8-18.8,0.3-29.7c-6.4-15.6-16.5-22.9-28.2-25.4
		c-21.1-4.5-41.4,2.8-61.2,11.5c-39.3,17.2-78.4,35.9-117.7,53.1c-18.7,8.2-37.9,12.5-57.5,11.3c-16.3-1-31.1-7.9-43.2-25.2
		c-7.9-11.3-10.9-29.6-7-44.1c2.6-9.6,7.1-15.7,12.6-17c-3,8.1-8,16.3-9.2,25.5c-2.1,16.9,5.1,32.9,15.7,40.3
		c16.6,11.7,34,9.4,50.5,2.5C192,157,227.8,138.3,264.3,123c25.2-10.6,50.9-19.4,76.8-26c17.8-4.6,35.6,0,51.2,15.8
		c11.6,11.8,18.3,35.6,14.3,52.9c-2.6,11.2-7.9,18-14.8,19.2c0.9-6.7,3.4-14,2.3-19.9c-1.2-6.4-4.9-12.8-8.7-16.9
		c-10.5-11.6-23.1-11.7-35.4-9.8c-28.4,4.4-53,20.5-70.8,55.2c-3.8,7.5-6.8,16.6-8.6,25.6c-3.3,16.2,1.8,26.4,13.1,28.5
		C285.7,247.9,287.7,247.9,289.7,248.1z"/>
	<path class="st0" d="M609.8-6.8c-8.7,9.9-8.3,18.5,1.4,27c10.5,9.1,21.7,10,32.9,4.2c8.8-4.6,13.5-15.1,14.6-28.6
		c0.8-10-4.8-20.5-13.7-25.6c-13.7-8-27.8-4.9-40.7,2.1c-25.1,13.6-49.7,29.4-74.1,45.4c-21,13.8-42.5,23.4-65.5,16.3
		c-8.9-2.7-18.2-8.1-25.5-16c-15.7-16.8-17.2-39.5-5.4-62.4c11-21.3,26.1-32.3,43.8-33.3c8.5-0.5,17.4,0.9,25.7,4.2
		c8.7,3.4,14.1,13.4,15.9,27c1.4,10.7-0.4,19.8-6.2,26.8C501.1-5.4,487.8,1,472.6-6.1c-8.5-3.9-11.4-12.8-8.8-25.2
		c12,18.7,31.1,21.4,45.9,6.4c7.7-7.8,9.1-20.9,1.6-29c-5.5-5.9-12.9-10.7-19.5-10.7c-22.1,0-41.6,11-55.8,37.6
		c-7.4,13.9-5.9,26.4,3.9,36.6c13.1,13.7,27.8,12.8,41.8,6.5c14.6-6.6,28.8-15.7,42.7-25.3C549-26,573.2-44,600-51.1
		c17.5-4.6,34.7-4,50,12.6c9.3,10.1,15.4,23,12.4,40.9c-2.8,16.5-10.8,26.7-21.8,30.5c-12.8,4.3-25.3,2.7-36.8-7.8
		c-5.4-4.9-9.8-11.7-9.1-21.6c0.4-4.8,3-10.5,5.7-13.1c2.3-2.2,6.2-0.4,9.4-0.4C609.8-9.1,609.8-7.9,609.8-6.8z"/>
	<path class="st0" d="M353.2-224.1c-7.8-7.3-16.8-11.1-25.6-8.3c-14.5,4.5-29,10-43.1,17.2c-27.2,13.9-53.8,30.3-81.1,43.3
		c-10.7,5.1-22.8,5-34.2,4.9c-4.3-0.1-11.1-5.9-12-11.1c-1.1-6,2.4-14.6,4.8-21.3c2.7-7.7,7.7-4.2,12-3.7c15.8,1.8,31.5,4.5,47.2,5
		c11.5,0.4,22.4-5.4,31.8-15.9c8.6-9.5,8.7-22-0.3-30.6c-3.8-3.7-8.4-6.2-12.9-7.6c-24.4-7.1-46.4,1.5-66.1,23.9
		c-4,4.6-7.8,6.2-12.8,6c-10.6-0.6-21.4-1-32,0.3c-20.4,2.6-36.2,17.7-47.1,43.5c-7.1,16.8-4.1,34.9,6.8,45.2
		c10.6,10.1,26.5,7.1,32.5-6.8c-4,1.9-7.5,3.9-11.1,5.1c-9.8,3.2-21.9-4.3-26.2-16.2c-3.8-10.5-1.5-21.6,7.1-34.4
		c8.3-12.2,18.5-18,29.8-20.7c12.3-2.9,24.6-5.5,37.3,0.8c-1.2,3.9-2.3,7.2-3.3,10.5c-4.8,15.6-3.2,24.5,6.2,34.2
		c9.3,9.5,19.9,11.3,30.7,10c19.1-2.3,37.1-10.3,54.6-21.8c22.8-15,45.7-30.1,69-43.2c8.7-4.9,18.7-5.5,28.2-5.7
		c6.8-0.2,12.4,6.8,14.3,16.9c1.8,9.7-3,16.2-8,19.8c-8.9,6.5-18.1,13-27.7,16.5c-13.1,4.7-26.4,5.4-35.2-16.5
		c0.4,14.7,6.8,24,18.2,26.9c19.9,5,36.3-7.4,50.9-25.5C365.9-195.6,364.2-213.7,353.2-224.1z M241.2-239c1.7,0.6,3.6,1.2,5,2.8
		c2.3,2.7,5.8,6.1,5.9,9.4c0.1,3.4-2.8,8.2-5.2,10.2c-3.8,3.1-8.3,5.8-12.5,6.1c-18.1,1.4-36.1-1.3-55.4-8.5
		C199.2-237.4,219-246.8,241.2-239z"/>
	<path class="st0" d="M54.6,714.3c-7.2,7-15.2,4.9-19.6-4.1c-4.1-8.4-2.5-21.4,3.6-28.4c9.7-11.2,30.5-9.7,39.6,2.8
		c7.2,10,7,29.9-0.4,41.6c-13.1,20.6-44.3,19.5-56.7-2.1c-10.7-18.6-6.8-51.1,8.2-68c20.6-23.1,48.6-24.2,72-0.6
		c12.5,12.6,23.7,28.2,35.6,42.2c15.7,18.7,33.4,25.9,53.3,20c13.8-4.1,25.2-20.8,26-38.9c0.7-17.7-4.6-30.4-15.8-36.2
		c-11.5-6-22.9-5.2-33.7,3.7c-7.8,6.4-11.1,16.5-9.6,28.2c1.4,10.6,6.5,15.4,13,17.6c9,3,17.8-1.2,21.6-10.2
		c3.4-7.9,1.6-16-4.3-19.4c-1.6-0.9-3.2-1.6-5.8-2.9c5.3-6,9.9-5.3,14.4-1.7c4.8,3.9,8.2,9.4,7.5,18.3c-0.8,9.3-4.1,16-9.9,19.8
		c-8.9,5.8-17.9,5-26.8,1c-7-3.2-12.3-9.8-13.6-21.2c-1.4-12.9,1.3-23.7,8.3-31.8c12.3-14,36.2-14.2,48.7-0.5
		c15.9,17.3,14.7,53.9-2.8,74c-19.7,22.6-41.6,25.2-62.9,8.6c-14.6-11.4-27.1-28.9-40.3-43.9c-16.6-18.8-34.1-32.3-56.2-26.3
		c-15,4.1-27.4,20.8-28.1,40.5c-0.5,14.2,2.9,25.7,11.7,32.2c13.6,10.2,27.2,9.7,40-2.8c6.8-6.6,9.2-17.5,7.3-27.9
		c-1.7-9.2-8.1-15.7-16.1-16.3c-6.4-0.5-12.5,0.3-17.1,8.3c-5.3,9.2-3.6,18.3,4.2,22C51.3,712.6,52.5,713.3,54.6,714.3z"/>
	<path class="st0" d="M609.6,829.3c-2.7,0.7-5.9,2.7-7.7,5.6c-14.4,23.5-28.6,47.2-42.7,71.1h-12.3c-13.8-23.5-27.8-46.7-41.9-69.6
		c-0.2-0.4-0.5-0.8-0.8-1.2c-1.1-1.4-2.4-2.6-3.9-3.5c-0.6-0.4-1.2-0.8-1.9-1c-0.8-0.4-1.5-0.7-2.2-0.9c0,0,0,0,0,0
		c-0.6-0.2-1.2-0.4-1.7-0.7c-1.4-0.7-2.6-1.7-3.7-2.9c-0.5-0.6-1-1.2-1.4-1.9h0c-0.7-1.2-1.3-2.5-1.8-4c-0.7-2.1-0.9-4.5-0.7-7
		c0.6-8.3,6.1-14.4,11.5-12.9c6,1.7,9,9.3,7.7,18.8c-0.4,2.6-0.8,6.4,0.1,8c12.9,22.2,26.1,44.1,39.2,66.1c0.4-0.3,0.8-0.7,1.1-1.1
		c-7.1-28.2-14.2-56.5-21.6-84.5c-0.5-2-2.9-3.5-4.6-4.2c-6.6-3-9.8-10.8-7.8-19.7c1.7-7.7,7.9-12,13.1-9.1
		c5.8,3.3,7.7,12.1,4.9,21.6c-0.8,2.7-1.6,6.4-1,8.9c6.1,25,12.4,49.8,19.2,76.7c0.6-3.1,1-4.1,1-5.1c0.1-34.3,0.1-68.6,0.3-103
		c0-3.1-0.2-5.7-1.1-8c-0.6-1.5-1.5-2.9-3-4.2c-6.9-6.4-7.8-20.9-2.4-29.6c5-8.2,14.1-8.2,19.1-0.1c5.4,8.7,4.9,21.6-1.9,28.7
		c-1.5,1.6-2.6,3.3-3.3,5.1c-1,2.5-1.3,5.4-1.2,8.9c0.2,35.3,0.1,70.6,1.1,106.3c0.7-2.1,1.4-4.2,2-6.4c4.9-19,9.7-37.9,14.5-56.9
		c2.1-8.4,5.3-16,1.2-26c-2.8-6.6,1.5-15.6,6.7-17.7c5.1-2.1,10.7,2.4,12.3,9.9c1.7,7.7-1,16.5-6.4,17.9c-4.9,1.3-6.4,5.6-7.9,11.5
		c-5.6,22.5-11.3,44.8-17,67.2c-0.9,3.6-1.7,7.2-1.4,11.9c12.9-21.5,25.8-43,38.5-64.8c1.1-1.8,0.9-6,0.6-8.9
		c-1.2-9.9,1.6-17.1,7.7-18.6c5.3-1.3,10.2,4,11.1,12.2C620,821.7,616.4,827.6,609.6,829.3z"/>
	<path class="st0" d="M601.1,728.6c21.6-9.9,25.4-36.9,28.9-64.1c1.9-14.9,3.6-29.8,6.2-44.4c2.6,20.5,5,41.1,7.9,61.5
		c3.2,22.3,10.4,40.2,26.7,47.1c-14.1,3.2-20.9,17.5-24.1,35c-4.6,24.9-7.5,50.4-11.1,74.5c-2.2-17.3-4.4-36.1-7-54.8
		c-1.1-8.1-2.5-16.3-4.6-23.9C619.9,744.2,613.6,731.8,601.1,728.6z"/>
	<path class="st0" d="M109.3,797.4c-7.6-7.5-18.7-5.8-23.6,4.2c1.8-1,3.2-1.8,4.7-2.5c8.6-4,18.4,0.8,21.8,10.5
		c3,8.4,0.3,19-7.8,27.8c-13.6,14.5-28.8,15.3-45.2,11.6c0.7-2.7,1.1-4.1,1.5-5.6c4.6-16.1,1.9-26-9.4-31.4
		c-3.8-1.8-7.9-2.7-11.8-2.6c-13.8,0-26.9,5-39.5,13.2c-17.6,11.3-35.1,23-53,33.1c-6.2,3.5-13.6,4.7-20.2,3.7
		c-3.7-0.6-8.1-7-9.8-12.5c-0.9-2.8,2.8-11.7,5.7-13.6c8.4-5.6,17.3-10.1,26.3-12.9c6.9-2.1,13.5,1.5,18,11
		c-0.4-8.8-4.4-13-9.3-15.6c-11.9-6.2-34.3,4.4-41.9,19.7c-4,8-2.9,18.6,2.9,24.5c2.7,2.8,5.9,4.8,9.1,6.1
		c12.1,4.8,23.3-1.1,34.5-7.1c22.2-11.9,44.2-24.7,66.7-35.5c7.3-3.5,15.8-3,23.7-2.4c4.1,0.3,9.1,3.4,7.7,12.9
		c-1.4,9.9-5.5,14.2-11.8,12.8c-7.3-1.6-14.6-3.6-21.9-4.1c-10.9-0.7-22-0.7-31.8,8.5c-4,3.7-9.4,7.8-7.4,15.7
		c1.4,5.5,5.9,10.9,9.8,12.9c12.3,6.1,25.6,6.5,36.3-3.6c13.7-12.9,27.8-16.8,43.2-15.6c1.3,0.1,2.7-0.2,4-0.5
		c14.2-2.6,25.2-13,32.7-31C118.3,817.4,116.4,804.5,109.3,797.4z M-0.8,871.7c-2.8-1.2-5.1-5.4-7.6-8.2c2.3-3.2,4.4-8,7.1-9.1
		c4.8-2,10-2.8,15-2.4c9.6,0.8,19.3,2.8,28.9,4.2c0,1.1,0.1,2.2,0.1,3.2C29.3,871.6,15.1,878.2-0.8,871.7z"/>
	<path class="st0" d="M608.1,612.3c-0.7-13.1-3.7-26.7-7.5-38.6c-4-12.4-15.9-17.6-23.8-13.3c-6.6,3.6-12.1,16-10.9,27.1
		c0.7,6.7,2.6,13.4,4.9,19.3c3.3,8.6,7.3,16.6,11.3,24.6c6.4,12.8,6.2,26,0.7,39c-2.4,5.7-5.8,10.4-9.1,16c7.8,0.4,14-4,19.3-11.5
		C605.1,657.9,609.3,635.9,608.1,612.3z M584.1,601.8c-5.9-0.3-10.8-8.2-10.7-17.1c0.1-8.9,5.2-16.5,11.2-16.6
		c6.2-0.1,11.5,8,11.3,17.2C595.7,594.9,590.5,602.2,584.1,601.8z"/>
	<path class="st0" d="M545.5,611c-6.6,3.5-13.8,9.5-18,17.5c-9.9,19.4-14.9,40-16.5,61.4c-1.6,21.1,0.1,43,3.6,65.2
		c0.6,0.1,1.3,0.2,1.9,0.3c0.2-1.5,0.6-3.1,0.7-4.6c1.1-23.1,5.7-43.2,13.5-60.9c5.5-12.6,12.6-23.9,21.2-34.2
		c4.2-5.1,7.8-13.1,9.5-20.9C565,618.5,556.4,605.3,545.5,611z M533.3,667.7c-2.8-5.3-6-8.8-5.7-11.3c0.4-3.5,3.2-7.7,5.5-8.6
		c1.3-0.5,5.2,4.6,5.3,7.4C538.5,658.5,535.8,662,533.3,667.7z M547.1,645.4c-5-1-8.1-5.3-8.2-13.1c-0.1-7.1,4.2-13.4,8.9-13.3
		c4.5,0.1,8.7,6.9,8.5,13.8C556.1,640,551.8,646.3,547.1,645.4z"/>
	<path class="st0" d="M49.2,436.8c-3.9-16.2-8.9-32.1-11.6-48.7c-6.3-38.6-5.1-76.8,7.6-112.5c3.3-9.4,8.4-18.1,13.8-25.2
		c9.9-13,29-4.1,33.9,15.7c-18.3-10.1-27.9,7-35.5,26.5c-16.3,42.1-17.6,87-8.3,133c0.7,3.4,1.5,6.7,2.3,10
		C50.7,436,49.9,436.4,49.2,436.8z"/>
	<path class="st0" d="M-56.3,674.5c3.9,19.4,7.3,39.1,24.2,45.8c-16,10.5-19.9,30.8-24,53.8c-3.9-22.9-8-42.8-23.4-53.4
		C-64,713-59.1,695.2-56.3,674.5z"/>
	<path class="st0" d="M675.6,492.5c-16.2,10.1-20.2,30.7-24.2,53.2c-7.1-34.9-9-39.2-23-53.3c14.9-6.7,19.5-24.5,22.4-47.4
		C655.4,466.4,658.6,486.6,675.6,492.5z"/>
	<path class="st0" d="M178.9,898.5c-1,2-1.9,4.3-3.1,5.9c-0.4,0.5-0.8,1.1-1.2,1.6h-38c-6.1-6-10.8-14.9-12.4-25.8
		c-1.5-9.9,1-19,5.7-20.8c5.8-2.2,10.2,2.8,12.1,13.8c3.7,21,16.1,31.1,31.6,25.7c1.5-0.5,2.9-1.3,4.3-2
		C178.3,897.4,178.6,897.9,178.9,898.5z"/>
	<path class="st0" d="M465,875.4c-1.9,9.8-4.6,20.6-9.3,27.7c-0.7,1-1.4,2-2.2,2.9h-37.9c-2-2.2-3.7-4.8-5-7.8
		c5.7,0.5,11,1.9,16.2,1.4c10.8-0.9,17.5-9.9,20.3-25.5c0.7-3.8,1.3-9.1,3.1-10.5c3-2.5,7.9-4.8,10.2-2.8
		C463,863.2,465.8,871.3,465,875.4z"/>
	<path class="st0" d="M591.2-60.5c-21.1,10.4-41.5,10-60.9-5.7c-8.2-6.6-11-17.8-8.7-31.3c1.5-8.9,5.5-13,12.4-12.5
		c-2.7,16.4,3.6,26.3,11.8,34c11.8,11.2,25.1,14.6,38.9,15.4C586.8-60.4,589-60.5,591.2-60.5z"/>
	<path class="st0" d="M305.5,886.5c8.5-24.1,30.2-41,46.8-36.4c4.6,1.3,9.6,4.8,12.8,9.6c2.2,3.3,2.1,10.8,1.6,16.2
		c-0.1,1.3-6,3.3-8.6,2C330.6,865.2,330.3,865,305.5,886.5z"/>
	<path class="st0" d="M283.1,884.4c-7.9-4.7-16-10.2-24.4-14.5c-7.3-3.7-14.5-1.4-21.3,3.9c-1,0.8-2,1.6-3,2.1
		c-4.2,2.4-8.8,7.3-12.6-0.6c-2.8-6.1,0-16,6-20.7c11.5-9.2,23-5.8,34,1.9C271,862.9,278.6,872.3,283.1,884.4z"/>
	<path class="st0" d="M479.4,224.8c5.7-15.3,15-25.9,12-45.2c12,6.3,19.4-5,27.5-13.1c4.2-4.2,8.3-8.5,12.7-12.3
		c-7.3,17.6-24.3,27-19.7,55.2C498.4,199.7,490.8,217.1,479.4,224.8z"/>
	<path class="st0" d="M8.5,413.1c8.8,7.2,3.7,29.3-5.6,34.5c-7.2,4-14.8,7.6-22.4,9.4c-15.8,3.8-31.3,8.7-44.9,22.3
		c8.2-12.4,18.7-17.9,29.2-23.8c9.7-5.5,19.8-10.6,28.6-18.5C-0.8,431.7,3.2,421.8,8.5,413.1z"/>
	<path class="st0" d="M300.2,885.1c-0.9,7.1-3,13.9-4.7,20.8h-2.4c-2.2-12.4-4.6-24.8-6.4-37.4c-0.7-4.7-0.5-10.5,0.8-14.6
		c1.4-4.2,4.9-9.6,7.3-9.4c2.5,0.2,6.6,6.2,6.8,10.1C302.1,864.7,301.4,875.1,300.2,885.1z"/>
	<path class="st0" d="M402.5,894c0,4-1.4,8.2-3,11.9h-9c-1.4-4.2-2.6-9.1-2.1-13.2c1.3-12.4-2.5-20.5-8.2-27.5
		c-2.3-2.8-5.2-4.6-9-7.9C388.4,855.7,402.5,872.6,402.5,894z"/>
	<path class="st0" d="M217.5,857.6c-3.7,3.3-6.8,5.3-9.3,8.4c-5.8,7.2-9,15.9-7.3,28c0.7,4.7,0.1,8.9-1.2,12h-11.5
		c-1.2-2.6-1.9-6.2-1.9-10.3C186.1,873.3,200.9,854.4,217.5,857.6z"/>
	<path class="st0" d="M76.6,563.9c-1.5,13.2-1.5,13.2,6.9,36.7C76,593,69.7,581.1,58.4,587c3.9-22.6-7.4-34.1-14.2-50.7
		C55.7,545.6,62.5,563.7,76.6,563.9z"/>
	<path class="st0" d="M201.8,851.8c-13.8,2.7-21.2,15.3-28.2,29.7c-1.6,3.4-7,6-9.4,4.5c-4.5-2.8-3.3-9.9-1.5-15.6
		C168.1,853.6,188.1,843.3,201.8,851.8z"/>
	<path class="st0" d="M386.6,851.8c13.4-7.6,31-0.1,38.1,14.5c1.1,2.4,2.6,5.3,2.5,8c-0.1,4.2-0.7,10.4-2.5,11.8
		c-1.9,1.6-5.5-1.2-8.4-2.2c-0.4-0.1-0.6-0.9-0.9-1.5C409,867.2,401.3,854.2,386.6,851.8z"/>
	<path class="st0" d="M302.8,761.5c0.1,7.1-3.5,12.7-8.4,12.5c-5.1-0.2-7.8-4.6-8.2-11.7c-0.5-7.1,3.3-12.8,8-13
		C299.1,749,302.7,754.2,302.8,761.5z"/>
	<path class="st0" d="M294.4,830.5c-5.7-16.1-6.4-31-0.4-46.3C300.8,796.1,301,812.7,294.4,830.5z"/>
	<path class="st0" d="M261.8,807.8c2.9-17.1,9.7-27.4,19.5-29.7C280.8,792.1,273,804.2,261.8,807.8z"/>
	<path class="st0" d="M327.3,809.1c-10.9-5.4-17.2-15.2-20.5-30C315.7,777.8,324.4,790.2,327.3,809.1z"/>
	<path class="st0" d="M305.9,746.9c1.3-16.6,10-30.2,20.5-32.7C322.4,729.3,316.2,740.1,305.9,746.9z"/>
	<path class="st0" d="M283.4,746.7c-10.7-6.4-16.6-17.7-20.8-32.3C272.6,716,281.4,729.4,283.4,746.7z"/>
	<path class="st0" d="M294.5,696.9c6.5,15.3,4.4,29,0.1,44.7C290,726.1,288,712.3,294.5,696.9z"/>
	<path class="st0" d="M197.9,599.2c-2.7,2.9-5.2,7.7-8.1,8.3c-4.5,1-7.5-3.6-7.4-10.9c0.1-6.8,3.1-11.2,7.2-10.2
		c3,0.7,5.5,5.3,8.2,8.2C197.9,596.2,197.9,597.7,197.9,599.2z"/>
	<path class="st0" d="M278.2,763.3c-9.5,5.7-18.4,5.2-27.9-0.7C258.8,753.3,270.5,753.7,278.2,763.3z"/>
	<path class="st0" d="M338.6,761.9c-9.4,7.7-18.4,6.9-27.7,1.4C318.3,753.9,329.6,753.2,338.6,761.9z"/>
</g>
</svg>
